<svg width="96" height="96" viewBox="0 0 96 96" fill="none" xmlns="http://www.w3.org/2000/svg">
  <defs>
    <linearGradient id="gmShield" x1="18" y1="12" x2="78" y2="84" gradientUnits="userSpaceOnUse">
      <stop stop-color="#7CEBFF"/>
      <stop offset="0.45" stop-color="#2FC2FF"/>
      <stop offset="1" stop-color="#2867FF"/>
    </linearGradient>
  </defs>
  <path d="M48 6L78 18V43.5C78 62.2 66.1 79.1 48 88C29.9 79.1 18 62.2 18 43.5V18L48 6Z" fill="#071B31"/>
  <path d="M48 8.5L76 19.8V43.5C76 61.1 64.9 77 48 85.5C31.1 77 20 61.1 20 43.5V19.8L48 8.5Z" fill="url(#gmShield)"/>
  <path d="M48 16L68.5 24.3V42.1C68.5 55.4 60.3 67.4 48 73.8C35.7 67.4 27.5 55.4 27.5 42.1V24.3L48 16Z" fill="#08233D"/>
  <path d="M48 27C54.9 27 60.5 32.6 60.5 39.5C60.5 46.4 54.9 52 48 52C41.1 52 35.5 46.4 35.5 39.5C35.5 32.6 41.1 27 48 27Z" fill="#72E7FF"/>
  <path d="M43.5 37.5C43.5 35 45.5 33 48 33C50.5 33 52.5 35 52.5 37.5V53.5H43.5V37.5Z" fill="#08233D"/>
  <path d="M34.5 53.5C34.5 46.6 40.1 41 47 41H49C55.9 41 61.5 46.6 61.5 53.5V56H34.5V53.5Z" fill="#0EA6D8"/>
  <path d="M28 36H36" stroke="#72E7FF" stroke-width="4.5" stroke-linecap="round"/>
  <path d="M60 36H68" stroke="#72E7FF" stroke-width="4.5" stroke-linecap="round"/>
  <path d="M39 66L48 73L57 66" stroke="#72E7FF" stroke-width="4.5" stroke-linecap="round" stroke-linejoin="round"/>
</svg>
