<svg width="420" height="96" viewBox="0 0 420 96" fill="none" xmlns="http://www.w3.org/2000/svg">
  <defs>
    <linearGradient id="g1" x1="18" y1="8" x2="88" y2="88" gradientUnits="userSpaceOnUse">
      <stop stop-color="#7CEBFF"/>
      <stop offset="0.45" stop-color="#2FC2FF"/>
      <stop offset="1" stop-color="#2867FF"/>
    </linearGradient>
    <linearGradient id="g2" x1="110" y1="20" x2="405" y2="65" gradientUnits="userSpaceOnUse">
      <stop stop-color="#25F4FF"/>
      <stop offset="0.55" stop-color="#23A8FF"/>
      <stop offset="1" stop-color="#2867FF"/>
    </linearGradient>
  </defs>
  <rect width="420" height="96" rx="16" fill="#06192E"/>
  <rect x="1" y="1" width="418" height="94" rx="16" stroke="#27DFFF" stroke-opacity="0.22"/>
  <path d="M52 6L86 19V47.5C86 68.4 72.8 87.2 52 97C31.2 87.2 18 68.4 18 47.5V19L52 6Z" fill="#071B31"/>
  <path d="M52 9L83 20.8V47.5C83 66.5 71 83.7 52 92.8C33 83.7 21 66.5 21 47.5V20.8L52 9Z" fill="url(#g1)"/>
  <path d="M52 18L74.5 27V46.1C74.5 60.2 65.7 73 52 79.8C38.3 73 29.5 60.2 29.5 46.1V27L52 18Z" fill="#08233D"/>
  <circle cx="52" cy="47" r="19" stroke="#72E7FF" stroke-width="3" stroke-opacity="0.45"/>
  <path d="M52 23L57 41L52 54L47 41L52 23Z" fill="#72E7FF"/>
  <path d="M39 55C43 47 61 47 65 55V61L52 70L39 61V55Z" fill="#0EA6D8"/>
  <path d="M33 70C42 67 47 75 56 72C63 70 68 66 76 68" stroke="#72E7FF" stroke-width="4" stroke-linecap="round"/>
  <path d="M31 79C42 75 49 86 62 80" stroke="#2867FF" stroke-width="4" stroke-linecap="round"/>
  <text x="110" y="34" fill="url(#g2)" font-family="Arial, Helvetica, sans-serif" font-size="26" font-weight="900" letter-spacing="2.8">GHALBIT</text>
  <text x="110" y="60" fill="url(#g2)" font-family="Arial, Helvetica, sans-serif" font-size="18" font-weight="800" letter-spacing="6.5">MARITRONIX</text>
  <line x1="110" y1="72" x2="250" y2="72" stroke="#27DFFF" stroke-width="2"/>
  <circle cx="260" cy="72" r="3" fill="#27DFFF"/>
  <line x1="270" y1="72" x2="395" y2="72" stroke="#27DFFF" stroke-width="2"/>
  <text x="110" y="87" fill="#B7DBF4" font-family="Arial, Helvetica, sans-serif" font-size="9.5" font-weight="600" letter-spacing="1.1">Integrated Maritime &amp; Land Intelligence Platform</text>
</svg>